<svg xmlns="http://www.w3.org/2000/svg" xmlns:xlink="http://www.w3.org/1999/xlink" width="500" zoomAndPan="magnify" viewBox="0 0 375 374.999991" height="500" preserveAspectRatio="xMidYMid meet" version="1.2"><defs><clipPath id="cf32b5b183"><path d="M 37.5 37.5 L 337.292969 37.5 L 337.292969 337.292969 L 37.5 337.292969 Z M 37.5 37.5 "/></clipPath><clipPath id="e5f5e4c873"><path d="M 187.394531 37.5 C 104.609375 37.5 37.5 104.609375 37.5 187.394531 C 37.5 270.179688 104.609375 337.292969 187.394531 337.292969 C 270.179688 337.292969 337.292969 270.179688 337.292969 187.394531 C 337.292969 104.609375 270.179688 37.5 187.394531 37.5 Z M 187.394531 37.5 "/></clipPath><clipPath id="86f813bee8"><path d="M 42.984375 42.984375 L 332.007812 42.984375 L 332.007812 332.007812 L 42.984375 332.007812 Z M 42.984375 42.984375 "/></clipPath><clipPath id="9ed39e3457"><path d="M 187.496094 42.984375 C 107.6875 42.984375 42.984375 107.6875 42.984375 187.496094 C 42.984375 267.308594 107.6875 332.007812 187.496094 332.007812 C 267.308594 332.007812 332.007812 267.308594 332.007812 187.496094 C 332.007812 107.6875 267.308594 42.984375 187.496094 42.984375 Z M 187.496094 42.984375 "/></clipPath><clipPath id="269839d6b9"><path d="M 102.9375 102.9375 L 271.945312 102.9375 L 271.945312 271.945312 L 102.9375 271.945312 Z M 102.9375 102.9375 "/></clipPath><clipPath id="0fdb839be2"><path d="M 187.441406 102.9375 C 140.769531 102.9375 102.9375 140.769531 102.9375 187.441406 C 102.9375 234.113281 140.769531 271.945312 187.441406 271.945312 C 234.113281 271.945312 271.945312 234.113281 271.945312 187.441406 C 271.945312 140.769531 234.113281 102.9375 187.441406 102.9375 Z M 187.441406 102.9375 "/></clipPath><clipPath id="80c2c682c5"><path d="M 106.03125 106.03125 L 268.96875 106.03125 L 268.96875 268.96875 L 106.03125 268.96875 Z M 106.03125 106.03125 "/></clipPath><clipPath id="1fa4e2bde3"><path d="M 187.5 106.03125 C 142.503906 106.03125 106.03125 142.503906 106.03125 187.5 C 106.03125 232.492188 142.503906 268.96875 187.5 268.96875 C 232.492188 268.96875 268.96875 232.492188 268.96875 187.5 C 268.96875 142.503906 232.492188 106.03125 187.5 106.03125 Z M 187.5 106.03125 "/></clipPath><clipPath id="f464ed5f82"><path d="M 137.632812 149.351562 L 187.132812 149.351562 L 187.132812 187.601562 L 137.632812 187.601562 Z M 137.632812 149.351562 "/></clipPath><clipPath id="451027f19d"><path d="M 146 149.351562 L 173 149.351562 L 173 173 L 146 173 Z M 146 149.351562 "/></clipPath><clipPath id="4cc203f4fc"><path d="M 185.226562 149.351562 L 234.726562 149.351562 L 234.726562 187.601562 L 185.226562 187.601562 Z M 185.226562 149.351562 "/></clipPath><clipPath id="1b195200ca"><path d="M 194 149.351562 L 221 149.351562 L 221 173 L 194 173 Z M 194 149.351562 "/></clipPath><clipPath id="aa4ae42b1b"><path d="M 133.019531 195.894531 L 182.519531 195.894531 L 182.519531 234.144531 L 133.019531 234.144531 Z M 133.019531 195.894531 "/></clipPath><clipPath id="8b717c0fcd"><path d="M 187.5 195.894531 L 237 195.894531 L 237 234.144531 L 187.5 234.144531 Z M 187.5 195.894531 "/></clipPath></defs><g id="026dfd516a"><rect x="0" width="375" y="0" height="374.999991" style="fill:#ffffff;fill-opacity:1;stroke:none;"/><rect x="0" width="375" y="0" height="374.999991" style="fill:#ffffff;fill-opacity:1;stroke:none;"/><g clip-rule="nonzero" clip-path="url(#cf32b5b183)"><g clip-rule="nonzero" clip-path="url(#e5f5e4c873)"><path style="fill:none;stroke-width:7.064895;stroke-linecap:butt;stroke-linejoin:miter;stroke:#000000;stroke-opacity:1;stroke-miterlimit:4;" d="M 353.238626 0.00000580308 C 158.148685 0.00000580308 -0.00000480153 158.148696 -0.00000480153 353.238637 C -0.00000480153 548.328578 158.148685 706.486473 353.238626 706.486473 C 548.328567 706.486473 706.486463 548.328578 706.486463 353.238637 C 706.486463 158.148696 548.328567 0.00000580308 353.238626 0.00000580308 Z M 353.238626 0.00000580308 " transform="matrix(0.424344,0,0,0.424344,37.500002,37.499998)"/></g></g><g clip-rule="nonzero" clip-path="url(#86f813bee8)"><g clip-rule="nonzero" clip-path="url(#9ed39e3457)"><path style="fill:none;stroke-width:7.064895;stroke-linecap:butt;stroke-linejoin:miter;stroke:#000000;stroke-opacity:1;stroke-miterlimit:4;" d="M 340.316423 -0.00364873 C 152.369954 -0.00364873 -0.00365933 152.369965 -0.00365933 340.316433 C -0.00365933 528.272101 152.369954 680.636516 340.316423 680.636516 C 528.27209 680.636516 680.636505 528.272101 680.636505 340.316433 C 680.636505 152.369965 528.27209 -0.00364873 340.316423 -0.00364873 Z M 340.316423 -0.00364873 " transform="matrix(0.424635,0,0,0.424635,42.985929,42.985924)"/></g></g><g clip-rule="nonzero" clip-path="url(#269839d6b9)"><g clip-rule="nonzero" clip-path="url(#0fdb839be2)"><path style="fill:none;stroke-width:12.532023;stroke-linecap:butt;stroke-linejoin:miter;stroke:#000000;stroke-opacity:1;stroke-miterlimit:4;" d="M 353.242188 -0.0016572 C 158.144065 -0.0016572 -0.00167601 158.144084 -0.00167601 353.242206 C -0.00167601 548.340329 158.144065 706.48607 353.242188 706.48607 C 548.34031 706.48607 706.486051 548.340329 706.486051 353.242206 C 706.486051 158.144084 548.34031 -0.0016572 353.242188 -0.0016572 Z M 353.242188 -0.0016572 " transform="matrix(0.239223,0,0,0.239223,102.937901,102.937896)"/></g></g><g clip-rule="nonzero" clip-path="url(#80c2c682c5)"><g clip-rule="nonzero" clip-path="url(#1fa4e2bde3)"><path style="fill:none;stroke-width:12.532023;stroke-linecap:butt;stroke-linejoin:miter;stroke:#000000;stroke-opacity:1;stroke-miterlimit:4;" d="M 340.3256 0.00284127 C 152.361557 0.00284127 0.00282247 152.361576 0.00282247 340.325619 C 0.00282247 528.273344 152.361557 680.648396 340.3256 680.648396 C 528.273325 680.648396 680.648377 528.273344 680.648377 340.325619 C 680.648377 152.361576 528.273325 0.00284127 340.3256 0.00284127 Z M 340.3256 0.00284127 " transform="matrix(0.239387,0,0,0.239387,106.030574,106.03057)"/></g></g><g style="fill:#000000;fill-opacity:1;"><g transform="translate(132.84219, 169.873069)"><path style="stroke:none" d="M 0.1875 -0.625 L 0.015625 -0.671875 C 0.0234375 -0.878906 -0.0507812 -1.050781 -0.21875 -1.1875 C -0.382812 -1.320312 -0.71875 -1.46875 -1.21875 -1.625 L -6.75 -3.34375 C -7.257812 -3.507812 -7.617188 -3.582031 -7.828125 -3.5625 C -8.035156 -3.539062 -8.203125 -3.445312 -8.328125 -3.28125 L -8.5 -3.328125 L -7.859375 -5.34375 L -7.6875 -5.296875 C -7.6875 -5.085938 -7.601562 -4.914062 -7.4375 -4.78125 C -7.28125 -4.65625 -6.945312 -4.507812 -6.4375 -4.34375 L -0.90625 -2.625 C -0.40625 -2.46875 -0.0507812 -2.394531 0.15625 -2.40625 C 0.375 -2.425781 0.539062 -2.519531 0.65625 -2.6875 L 0.828125 -2.640625 Z M 0.1875 -0.625 "/></g></g><g style="fill:#000000;fill-opacity:1;"><g transform="translate(133.611553, 166.892404)"><path style="stroke:none" d="M 3.03125 -6.875 L -6.6875 -4.375 L -1.453125 -2.140625 C -0.992188 -1.953125 -0.628906 -1.835938 -0.359375 -1.796875 C -0.0859375 -1.753906 0.128906 -1.769531 0.296875 -1.84375 C 0.460938 -1.914062 0.613281 -2.023438 0.75 -2.171875 L 0.90625 -2.109375 L 0.265625 -0.625 L 0.109375 -0.6875 C 0.117188 -0.894531 0.0507812 -1.070312 -0.09375 -1.21875 C -0.25 -1.363281 -0.570312 -1.535156 -1.0625 -1.734375 L -6.375 -4 C -6.875 -4.21875 -7.226562 -4.316406 -7.4375 -4.296875 C -7.65625 -4.285156 -7.84375 -4.171875 -8 -3.953125 L -8.171875 -4.03125 L -7.671875 -5.21875 L 1.328125 -7.546875 L -3.453125 -9.578125 C -3.898438 -9.773438 -4.265625 -9.894531 -4.546875 -9.9375 C -4.828125 -9.988281 -5.046875 -9.976562 -5.203125 -9.90625 C -5.367188 -9.832031 -5.515625 -9.703125 -5.640625 -9.515625 L -5.8125 -9.59375 L -5.171875 -11.109375 L -5 -11.03125 C -5.019531 -10.832031 -4.953125 -10.660156 -4.796875 -10.515625 C -4.648438 -10.378906 -4.328125 -10.203125 -3.828125 -9.984375 L 3.109375 -7.03125 Z M 3.03125 -6.875 "/></g></g><g style="fill:#000000;fill-opacity:1;"><g transform="translate(136.760757, 159.323232)"><path style="stroke:none" d="M 0.34375 -0.5625 L 0.203125 -0.65625 C 0.253906 -0.851562 0.210938 -1.035156 0.078125 -1.203125 C -0.046875 -1.378906 -0.332031 -1.609375 -0.78125 -1.890625 L -5.703125 -4.921875 C -6.160156 -5.203125 -6.492188 -5.359375 -6.703125 -5.390625 C -6.910156 -5.421875 -7.09375 -5.375 -7.25 -5.25 L -7.390625 -5.328125 L -5.765625 -7.96875 C -5.285156 -8.726562 -4.773438 -9.3125 -4.234375 -9.71875 C -3.691406 -10.125 -3.132812 -10.382812 -2.5625 -10.5 C -1.988281 -10.613281 -1.429688 -10.613281 -0.890625 -10.5 C -0.359375 -10.394531 0.128906 -10.203125 0.578125 -9.921875 C 1.359375 -9.453125 1.945312 -8.867188 2.34375 -8.171875 C 2.75 -7.472656 2.941406 -6.71875 2.921875 -5.90625 C 2.898438 -5.09375 2.632812 -4.273438 2.125 -3.453125 Z M 0.21875 -2.515625 C 0.476562 -2.359375 0.703125 -2.28125 0.890625 -2.28125 C 1.085938 -2.28125 1.28125 -2.429688 1.46875 -2.734375 L 1.953125 -3.53125 C 2.554688 -4.488281 2.738281 -5.398438 2.5 -6.265625 C 2.257812 -7.128906 1.5625 -7.921875 0.40625 -8.640625 C -0.34375 -9.097656 -1.101562 -9.367188 -1.875 -9.453125 C -2.65625 -9.546875 -3.394531 -9.421875 -4.09375 -9.078125 C -4.800781 -8.734375 -5.410156 -8.148438 -5.921875 -7.328125 L -6.375 -6.59375 Z M 0.21875 -2.515625 "/></g></g><g style="fill:#000000;fill-opacity:1;"><g transform="translate(141.61134, 151.715455)"><path style="stroke:none" d="M 0.40625 -0.515625 L 0.265625 -0.625 C 0.335938 -0.8125 0.320312 -1 0.21875 -1.1875 C 0.113281 -1.375 -0.148438 -1.628906 -0.578125 -1.953125 L -5.140625 -5.484375 C -5.578125 -5.816406 -5.894531 -6.007812 -6.09375 -6.0625 C -6.300781 -6.125 -6.488281 -6.09375 -6.65625 -5.96875 L -6.78125 -6.078125 L -5.5 -7.75 L -5.375 -7.640625 C -5.4375 -7.453125 -5.414062 -7.269531 -5.3125 -7.09375 C -5.207031 -6.914062 -4.9375 -6.660156 -4.5 -6.328125 L 0.0625 -2.796875 C 0.488281 -2.472656 0.800781 -2.273438 1 -2.203125 C 1.207031 -2.140625 1.390625 -2.171875 1.546875 -2.296875 L 1.6875 -2.1875 Z M 0.40625 -0.515625 "/></g></g><g style="fill:#000000;fill-opacity:1;"><g transform="translate(143.392621, 149.193428)"><path style="stroke:none" d="M -0.15625 0.15625 L -0.28125 0.03125 C -0.195312 -0.132812 -0.160156 -0.34375 -0.171875 -0.59375 C -0.179688 -0.84375 -0.296875 -1.207031 -0.515625 -1.6875 L -3.390625 -7.890625 C -3.472656 -8.085938 -3.617188 -8.222656 -3.828125 -8.296875 L -4.125 -8.390625 L -3.765625 -9.40625 L 4 -6.46875 C 4.488281 -6.28125 4.851562 -6.1875 5.09375 -6.1875 C 5.332031 -6.1875 5.519531 -6.210938 5.65625 -6.265625 L 5.78125 -6.140625 L 4.40625 -4.671875 L 4.28125 -4.796875 C 4.375 -4.984375 4.34375 -5.125 4.1875 -5.21875 C 4.039062 -5.320312 3.71875 -5.460938 3.21875 -5.640625 L 1.296875 -6.359375 L -1.203125 -3.703125 L -0.359375 -1.84375 C 0.00390625 -1.039062 0.367188 -0.769531 0.734375 -1.03125 L 0.859375 -0.90625 Z M -1.3125 -3.890625 L 1.09375 -6.4375 L -3.25 -8.0625 Z M -1.3125 -3.890625 "/></g></g><g style="fill:#000000;fill-opacity:1;"><g transform="translate(148.722715, 143.464672)"><path style="stroke:none" d="M 5.9375 -4.609375 L -3.8125 -7.015625 L -0.265625 -2.578125 C 0.046875 -2.179688 0.3125 -1.898438 0.53125 -1.734375 C 0.75 -1.566406 0.953125 -1.476562 1.140625 -1.46875 C 1.328125 -1.46875 1.507812 -1.503906 1.6875 -1.578125 L 1.796875 -1.4375 L 0.53125 -0.421875 L 0.421875 -0.5625 C 0.523438 -0.726562 0.546875 -0.910156 0.484375 -1.109375 C 0.421875 -1.304688 0.222656 -1.613281 -0.109375 -2.03125 L -3.71875 -6.546875 C -4.0625 -6.972656 -4.328125 -7.226562 -4.515625 -7.3125 C -4.710938 -7.40625 -4.925781 -7.398438 -5.15625 -7.296875 L -5.265625 -7.4375 L -4.265625 -8.234375 L 4.75 -6.015625 L 1.515625 -10.0625 C 1.203125 -10.445312 0.929688 -10.722656 0.703125 -10.890625 C 0.484375 -11.066406 0.285156 -11.160156 0.109375 -11.171875 C -0.0546875 -11.191406 -0.238281 -11.15625 -0.4375 -11.0625 L -0.546875 -11.203125 L 0.734375 -12.234375 L 0.84375 -12.09375 C 0.71875 -11.914062 0.6875 -11.726562 0.75 -11.53125 C 0.8125 -11.34375 1.015625 -11.035156 1.359375 -10.609375 L 6.0625 -4.71875 Z M 5.9375 -4.609375 "/></g></g><g style="fill:#000000;fill-opacity:1;"><g transform="translate(155.345181, 138.336974)"><path style="stroke:none" d=""/></g></g><g style="fill:#000000;fill-opacity:1;"><g transform="translate(157.279651, 136.901276)"><path style="stroke:none" d="M -0.1875 0.109375 L -0.265625 -0.046875 C -0.140625 -0.179688 -0.0390625 -0.367188 0.03125 -0.609375 C 0.101562 -0.847656 0.109375 -1.234375 0.046875 -1.765625 L -0.671875 -8.5625 C -0.691406 -8.78125 -0.785156 -8.957031 -0.953125 -9.09375 L -1.1875 -9.265625 L -0.546875 -10.109375 L 5.875 -4.84375 C 6.269531 -4.5 6.582031 -4.285156 6.8125 -4.203125 C 7.039062 -4.128906 7.226562 -4.097656 7.375 -4.109375 L 7.453125 -3.953125 L 5.671875 -3.015625 L 5.59375 -3.171875 C 5.738281 -3.316406 5.753906 -3.457031 5.640625 -3.59375 C 5.535156 -3.738281 5.28125 -3.972656 4.875 -4.296875 L 3.265625 -5.59375 L 0.03125 -3.890625 L 0.25 -1.875 C 0.34375 -0.988281 0.601562 -0.609375 1.03125 -0.734375 L 1.109375 -0.578125 Z M 0.015625 -4.109375 L 3.09375 -5.75 L -0.46875 -8.6875 Z M 0.015625 -4.109375 "/></g></g><g style="fill:#000000;fill-opacity:1;"><g transform="translate(164.168291, 133.190351)"><path style="stroke:none" d="M 7.09375 -2.4375 L -1.34375 -7.875 L 0.59375 -2.53125 C 0.757812 -2.0625 0.914062 -1.710938 1.0625 -1.484375 C 1.21875 -1.253906 1.378906 -1.101562 1.546875 -1.03125 C 1.722656 -0.957031 1.90625 -0.925781 2.09375 -0.9375 L 2.15625 -0.78125 L 0.625 -0.234375 L 0.5625 -0.390625 C 0.726562 -0.515625 0.8125 -0.679688 0.8125 -0.890625 C 0.8125 -1.109375 0.722656 -1.46875 0.546875 -1.96875 L -1.421875 -7.40625 C -1.597656 -7.914062 -1.757812 -8.242188 -1.90625 -8.390625 C -2.0625 -8.535156 -2.273438 -8.59375 -2.546875 -8.5625 L -2.609375 -8.71875 L -1.40625 -9.15625 L 6.4375 -4.15625 L 4.671875 -9.046875 C 4.503906 -9.503906 4.335938 -9.851562 4.171875 -10.09375 C 4.015625 -10.332031 3.859375 -10.484375 3.703125 -10.546875 C 3.546875 -10.617188 3.359375 -10.644531 3.140625 -10.625 L 3.078125 -10.78125 L 4.625 -11.328125 L 4.6875 -11.171875 C 4.519531 -11.046875 4.4375 -10.878906 4.4375 -10.671875 C 4.4375 -10.472656 4.523438 -10.117188 4.703125 -9.609375 L 7.265625 -2.5 Z M 7.09375 -2.4375 "/></g></g><g style="fill:#000000;fill-opacity:1;"><g transform="translate(171.856423, 130.343464)"><path style="stroke:none" d="M 0.640625 -0.125 L 0.609375 -0.296875 C 0.796875 -0.398438 0.90625 -0.554688 0.9375 -0.765625 C 0.976562 -0.972656 0.945312 -1.335938 0.84375 -1.859375 L -0.28125 -7.53125 C -0.382812 -8.0625 -0.492188 -8.410156 -0.609375 -8.578125 C -0.722656 -8.753906 -0.890625 -8.851562 -1.109375 -8.875 L -1.140625 -9.046875 L 1.90625 -9.65625 C 2.789062 -9.832031 3.566406 -9.859375 4.234375 -9.734375 C 4.898438 -9.609375 5.46875 -9.367188 5.9375 -9.015625 C 6.414062 -8.671875 6.796875 -8.265625 7.078125 -7.796875 C 7.359375 -7.328125 7.550781 -6.835938 7.65625 -6.328125 C 7.84375 -5.441406 7.816406 -4.609375 7.578125 -3.828125 C 7.347656 -3.054688 6.925781 -2.40625 6.3125 -1.875 C 5.695312 -1.34375 4.921875 -0.984375 3.984375 -0.796875 Z M 1.984375 -1.5625 C 2.035156 -1.257812 2.128906 -1.035156 2.265625 -0.890625 C 2.410156 -0.753906 2.65625 -0.722656 3 -0.796875 L 3.921875 -0.96875 C 5.035156 -1.195312 5.828125 -1.691406 6.296875 -2.453125 C 6.765625 -3.210938 6.867188 -4.257812 6.609375 -5.59375 C 6.429688 -6.445312 6.109375 -7.1875 5.640625 -7.8125 C 5.179688 -8.445312 4.582031 -8.90625 3.84375 -9.1875 C 3.113281 -9.46875 2.273438 -9.515625 1.328125 -9.328125 L 0.46875 -9.15625 Z M 1.984375 -1.5625 "/></g></g><g style="fill:#000000;fill-opacity:1;"><g transform="translate(180.752676, 128.723983)"><path style="stroke:none" d=""/></g></g><g style="fill:#000000;fill-opacity:1;"><g transform="translate(183.120601, 128.336878)"><path style="stroke:none" d="M 7.515625 0.09375 L 1.390625 -7.859375 L 1.40625 -2.171875 C 1.40625 -1.671875 1.4375 -1.285156 1.5 -1.015625 C 1.570312 -0.753906 1.675781 -0.5625 1.8125 -0.4375 C 1.945312 -0.3125 2.109375 -0.222656 2.296875 -0.171875 L 2.296875 0 L 0.671875 0 L 0.671875 -0.171875 C 0.867188 -0.234375 1.003906 -0.363281 1.078125 -0.5625 C 1.148438 -0.757812 1.1875 -1.125 1.1875 -1.65625 L 1.171875 -7.4375 C 1.171875 -7.976562 1.125 -8.34375 1.03125 -8.53125 C 0.9375 -8.726562 0.757812 -8.859375 0.5 -8.921875 L 0.5 -9.09375 L 1.78125 -9.09375 L 7.46875 -1.75 L 7.453125 -6.9375 C 7.453125 -7.425781 7.414062 -7.804688 7.34375 -8.078125 C 7.28125 -8.359375 7.179688 -8.554688 7.046875 -8.671875 C 6.921875 -8.796875 6.753906 -8.882812 6.546875 -8.9375 L 6.546875 -9.109375 L 8.1875 -9.109375 L 8.1875 -8.9375 C 7.988281 -8.875 7.851562 -8.742188 7.78125 -8.546875 C 7.707031 -8.359375 7.671875 -7.992188 7.671875 -7.453125 L 7.6875 0.09375 Z M 7.515625 0.09375 "/></g></g><g style="fill:#000000;fill-opacity:1;"><g transform="translate(191.361975, 128.329487)"><path style="stroke:none" d="M 0.65625 0.09375 L 0.671875 -0.078125 C 0.867188 -0.117188 1.019531 -0.234375 1.125 -0.421875 C 1.226562 -0.609375 1.316406 -0.960938 1.390625 -1.484375 L 2.171875 -7.21875 C 2.242188 -7.75 2.253906 -8.113281 2.203125 -8.3125 C 2.148438 -8.519531 2.03125 -8.664062 1.84375 -8.75 L 1.875 -8.921875 L 7.859375 -8.125 L 7.765625 -6.421875 L 7.625 -6.40625 C 7.46875 -7 7.207031 -7.429688 6.84375 -7.703125 C 6.476562 -7.984375 5.96875 -8.164062 5.3125 -8.25 L 3.421875 -8.515625 L 2.890625 -4.609375 L 4.53125 -4.390625 C 5.007812 -4.316406 5.390625 -4.296875 5.671875 -4.328125 C 5.960938 -4.359375 6.179688 -4.429688 6.328125 -4.546875 C 6.472656 -4.671875 6.582031 -4.820312 6.65625 -5 L 6.8125 -4.984375 L 6.546875 -3.03125 L 6.390625 -3.046875 C 6.367188 -3.265625 6.300781 -3.441406 6.1875 -3.578125 C 6.082031 -3.722656 5.894531 -3.84375 5.625 -3.9375 C 5.363281 -4.039062 4.992188 -4.128906 4.515625 -4.203125 L 2.875 -4.421875 L 2.34375 -0.484375 C 2.289062 -0.0859375 2.453125 0.132812 2.828125 0.1875 L 4.5 0.421875 C 5.125 0.503906 5.648438 0.460938 6.078125 0.296875 C 6.503906 0.128906 6.878906 -0.234375 7.203125 -0.796875 L 7.34375 -0.765625 L 7 0.9375 Z M 0.65625 0.09375 "/></g></g><g style="fill:#000000;fill-opacity:1;"><g transform="translate(198.507892, 129.280983)"><path style="stroke:none" d="M 0.640625 0.171875 L 0.6875 0 C 0.882812 -0.0078125 1.046875 -0.0976562 1.171875 -0.265625 C 1.304688 -0.441406 1.441406 -0.789062 1.578125 -1.3125 L 3.046875 -6.890625 C 3.179688 -7.421875 3.234375 -7.785156 3.203125 -7.984375 C 3.171875 -8.191406 3.070312 -8.347656 2.90625 -8.453125 L 2.953125 -8.625 L 5.5 -7.953125 C 6.363281 -7.734375 7.007812 -7.429688 7.4375 -7.046875 C 7.875 -6.671875 8.148438 -6.269531 8.265625 -5.84375 C 8.390625 -5.414062 8.394531 -4.992188 8.28125 -4.578125 C 8.0625 -3.742188 7.582031 -3.140625 6.84375 -2.765625 C 6.101562 -2.390625 5.144531 -2.351562 3.96875 -2.65625 L 3.078125 -2.890625 L 2.59375 -1.03125 C 2.457031 -0.507812 2.398438 -0.144531 2.421875 0.0625 C 2.441406 0.269531 2.539062 0.425781 2.71875 0.53125 L 2.671875 0.703125 Z M 3.140625 -3.09375 L 4 -2.875 C 4.8125 -2.664062 5.484375 -2.710938 6.015625 -3.015625 C 6.546875 -3.316406 6.90625 -3.835938 7.09375 -4.578125 C 7.21875 -5.023438 7.234375 -5.46875 7.140625 -5.90625 C 7.046875 -6.351562 6.828125 -6.75 6.484375 -7.09375 C 6.140625 -7.445312 5.628906 -7.710938 4.953125 -7.890625 C 4.859375 -7.910156 4.765625 -7.929688 4.671875 -7.953125 C 4.578125 -7.972656 4.492188 -7.988281 4.421875 -8 Z M 3.140625 -3.09375 "/></g></g><g style="fill:#000000;fill-opacity:1;"><g transform="translate(205.01829, 130.921318)"><path style="stroke:none" d="M -0.203125 -0.078125 L -0.140625 -0.234375 C 0.046875 -0.234375 0.253906 -0.28125 0.484375 -0.375 C 0.710938 -0.46875 1.015625 -0.707031 1.390625 -1.09375 L 6.125 -6.015625 C 6.28125 -6.179688 6.351562 -6.367188 6.34375 -6.578125 L 6.328125 -6.875 L 7.40625 -6.921875 L 7.46875 1.390625 C 7.476562 1.910156 7.519531 2.28125 7.59375 2.5 C 7.675781 2.726562 7.769531 2.898438 7.875 3.015625 L 7.8125 3.171875 L 5.953125 2.40625 L 6.015625 2.25 C 6.222656 2.257812 6.34375 2.175781 6.375 2 C 6.414062 1.832031 6.425781 1.488281 6.40625 0.96875 L 6.390625 -1.09375 L 3 -2.46875 L 1.59375 -1.015625 C 0.96875 -0.378906 0.84375 0.0625 1.21875 0.3125 L 1.15625 0.46875 Z M 3.15625 -2.625 L 6.40625 -1.3125 L 6.359375 -5.9375 Z M 3.15625 -2.625 "/></g></g><g style="fill:#000000;fill-opacity:1;"><g transform="translate(212.304838, 133.886193)"><path style="stroke:none" d="M 0.578125 0.328125 L 0.65625 0.171875 C 0.851562 0.210938 1.035156 0.164062 1.203125 0.03125 C 1.367188 -0.101562 1.582031 -0.398438 1.84375 -0.859375 L 4.671875 -5.90625 C 4.941406 -6.375 5.085938 -6.710938 5.109375 -6.921875 C 5.140625 -7.128906 5.085938 -7.304688 4.953125 -7.453125 L 5.03125 -7.59375 L 6.859375 -6.5625 L 6.78125 -6.421875 C 6.582031 -6.472656 6.40625 -6.425781 6.25 -6.28125 C 6.09375 -6.144531 5.878906 -5.84375 5.609375 -5.375 L 2.359375 0.421875 C 2.160156 0.765625 2.226562 1.03125 2.5625 1.21875 L 3.90625 1.96875 C 4.445312 2.28125 4.910156 2.429688 5.296875 2.421875 C 5.679688 2.421875 6.085938 2.257812 6.515625 1.9375 L 6.640625 2.046875 L 5.84375 3.28125 Z M 0.578125 0.328125 "/></g></g><g style="fill:#000000;fill-opacity:1;"><g transform="translate(218.142105, 137.241251)"><path style="stroke:none" d="M 0.546875 0.375 L 0.640625 0.234375 C 0.835938 0.285156 1.023438 0.253906 1.203125 0.140625 C 1.378906 0.0234375 1.617188 -0.253906 1.921875 -0.703125 L 5.171875 -5.46875 C 5.484375 -5.914062 5.65625 -6.242188 5.6875 -6.453125 C 5.726562 -6.660156 5.691406 -6.84375 5.578125 -7 L 5.671875 -7.140625 L 7.40625 -5.953125 L 7.3125 -5.8125 C 7.113281 -5.875 6.929688 -5.84375 6.765625 -5.71875 C 6.597656 -5.601562 6.359375 -5.320312 6.046875 -4.875 L 2.796875 -0.109375 C 2.492188 0.335938 2.316406 0.660156 2.265625 0.859375 C 2.222656 1.066406 2.257812 1.253906 2.375 1.421875 L 2.28125 1.5625 Z M 0.546875 0.375 "/></g></g><g style="fill:#000000;fill-opacity:1;"><g transform="translate(220.818008, 139.071117)"><path style="stroke:none" d=""/></g></g><g style="fill:#000000;fill-opacity:1;"><g transform="translate(222.819776, 140.458814)"><path style="stroke:none" d="M 0.484375 0.4375 L 0.59375 0.3125 C 0.78125 0.394531 0.972656 0.390625 1.171875 0.296875 C 1.367188 0.203125 1.644531 -0.0390625 2 -0.4375 L 5.859375 -4.734375 C 6.222656 -5.140625 6.4375 -5.4375 6.5 -5.625 C 6.570312 -5.820312 6.554688 -6.015625 6.453125 -6.203125 L 6.5625 -6.328125 L 11.125 -2.234375 L 10.28125 -1.125 L 10.15625 -1.203125 C 10.28125 -1.660156 10.285156 -2.0625 10.171875 -2.40625 C 10.054688 -2.757812 9.769531 -3.140625 9.3125 -3.546875 L 7.609375 -5.09375 L 5.0625 -2.28125 L 6.21875 -1.25 C 6.582031 -0.914062 6.882812 -0.679688 7.125 -0.546875 C 7.363281 -0.410156 7.570312 -0.347656 7.75 -0.359375 C 7.9375 -0.367188 8.117188 -0.429688 8.296875 -0.546875 L 8.40625 -0.4375 L 7.078125 1.03125 L 6.96875 0.921875 C 7.0625 0.742188 7.101562 0.5625 7.09375 0.375 C 7.082031 0.195312 7.003906 -0.00390625 6.859375 -0.234375 C 6.710938 -0.472656 6.457031 -0.757812 6.09375 -1.09375 L 4.9375 -2.125 L 2.78125 0.265625 C 2.425781 0.660156 2.207031 0.957031 2.125 1.15625 C 2.039062 1.351562 2.054688 1.539062 2.171875 1.71875 L 2.0625 1.84375 Z M 0.484375 0.4375 "/></g></g><g style="fill:#000000;fill-opacity:1;"><g transform="translate(227.943419, 144.853177)"><path style="stroke:none" d="M 3.28125 4.15625 C 2.925781 3.726562 2.644531 3.242188 2.4375 2.703125 C 2.226562 2.171875 2.128906 1.609375 2.140625 1.015625 C 2.160156 0.429688 2.304688 -0.148438 2.578125 -0.734375 C 2.859375 -1.316406 3.3125 -1.867188 3.9375 -2.390625 C 4.613281 -2.953125 5.347656 -3.304688 6.140625 -3.453125 C 6.929688 -3.597656 7.703125 -3.53125 8.453125 -3.25 C 9.203125 -2.976562 9.867188 -2.488281 10.453125 -1.78125 C 10.796875 -1.363281 11.066406 -0.882812 11.265625 -0.34375 C 11.472656 0.195312 11.570312 0.757812 11.5625 1.34375 C 11.550781 1.9375 11.398438 2.523438 11.109375 3.109375 C 10.828125 3.691406 10.378906 4.238281 9.765625 4.75 C 9.148438 5.269531 8.535156 5.609375 7.921875 5.765625 C 7.304688 5.921875 6.707031 5.945312 6.125 5.84375 C 5.550781 5.738281 5.019531 5.535156 4.53125 5.234375 C 4.039062 4.929688 3.625 4.570312 3.28125 4.15625 Z M 5.1875 -2.0625 C 4.695312 -1.632812 4.285156 -1.140625 3.953125 -0.578125 C 3.617188 -0.0234375 3.382812 0.546875 3.25 1.140625 C 3.113281 1.734375 3.085938 2.304688 3.171875 2.859375 C 3.265625 3.421875 3.492188 3.925781 3.859375 4.375 C 4.296875 4.90625 4.78125 5.253906 5.3125 5.421875 C 5.851562 5.585938 6.394531 5.585938 6.9375 5.421875 C 7.476562 5.253906 7.988281 4.953125 8.46875 4.515625 C 8.976562 4.066406 9.40625 3.5625 9.75 3 C 10.101562 2.4375 10.351562 1.851562 10.5 1.25 C 10.644531 0.65625 10.671875 0.078125 10.578125 -0.484375 C 10.484375 -1.046875 10.25 -1.550781 9.875 -2 C 9.457031 -2.507812 8.988281 -2.84375 8.46875 -3 C 7.945312 -3.164062 7.398438 -3.171875 6.828125 -3.015625 C 6.253906 -2.859375 5.707031 -2.539062 5.1875 -2.0625 Z M 5.1875 -2.0625 "/></g></g><g style="fill:#000000;fill-opacity:1;"><g transform="translate(234.324407, 152.484796)"><path style="stroke:none" d="M 2.5 4.671875 C 2.226562 4.191406 2.035156 3.664062 1.921875 3.09375 C 1.804688 2.53125 1.804688 1.957031 1.921875 1.375 C 2.046875 0.800781 2.296875 0.25 2.671875 -0.28125 C 3.046875 -0.8125 3.585938 -1.273438 4.296875 -1.671875 C 5.066406 -2.109375 5.847656 -2.328125 6.640625 -2.328125 C 7.441406 -2.328125 8.1875 -2.125 8.875 -1.71875 C 9.570312 -1.320312 10.144531 -0.722656 10.59375 0.078125 C 10.863281 0.546875 11.050781 1.0625 11.15625 1.625 C 11.269531 2.1875 11.269531 2.757812 11.15625 3.34375 C 11.039062 3.925781 10.789062 4.476562 10.40625 5 C 10.03125 5.519531 9.492188 5.976562 8.796875 6.375 C 8.097656 6.769531 7.429688 6.992188 6.796875 7.046875 C 6.160156 7.109375 5.5625 7.035156 5 6.828125 C 4.445312 6.617188 3.957031 6.320312 3.53125 5.9375 C 3.113281 5.5625 2.769531 5.140625 2.5 4.671875 Z M 5.46875 -1.125 C 4.914062 -0.789062 4.425781 -0.378906 4 0.109375 C 3.570312 0.597656 3.238281 1.125 3 1.6875 C 2.757812 2.25 2.632812 2.8125 2.625 3.375 C 2.613281 3.945312 2.753906 4.484375 3.046875 4.984375 C 3.378906 5.585938 3.796875 6.015625 4.296875 6.265625 C 4.796875 6.515625 5.328125 6.609375 5.890625 6.546875 C 6.453125 6.484375 7.003906 6.269531 7.546875 5.90625 C 8.117188 5.5625 8.625 5.140625 9.0625 4.640625 C 9.507812 4.148438 9.859375 3.625 10.109375 3.0625 C 10.367188 2.5 10.5 1.929688 10.5 1.359375 C 10.507812 0.796875 10.375 0.257812 10.09375 -0.25 C 9.757812 -0.820312 9.347656 -1.234375 8.859375 -1.484375 C 8.367188 -1.734375 7.832031 -1.828125 7.25 -1.765625 C 6.664062 -1.710938 6.070312 -1.5 5.46875 -1.125 Z M 5.46875 -1.125 "/></g></g><g style="fill:#000000;fill-opacity:1;"><g transform="translate(239.249438, 161.156867)"><path style="stroke:none" d="M 0.21875 0.609375 L 0.375 0.546875 C 0.507812 0.710938 0.679688 0.796875 0.890625 0.796875 C 1.109375 0.804688 1.46875 0.722656 1.96875 0.546875 L 7.390625 -1.453125 C 7.898438 -1.640625 8.234375 -1.800781 8.390625 -1.9375 C 8.546875 -2.070312 8.613281 -2.242188 8.59375 -2.453125 L 8.75 -2.515625 L 9.828125 0.40625 C 10.128906 1.25 10.269531 2.007812 10.25 2.6875 C 10.226562 3.375 10.082031 3.972656 9.8125 4.484375 C 9.550781 5.003906 9.210938 5.441406 8.796875 5.796875 C 8.390625 6.148438 7.941406 6.414062 7.453125 6.59375 C 6.585938 6.914062 5.753906 7.015625 4.953125 6.890625 C 4.160156 6.773438 3.453125 6.457031 2.828125 5.9375 C 2.203125 5.425781 1.722656 4.71875 1.390625 3.8125 Z M 1.859375 1.71875 C 1.566406 1.820312 1.359375 1.953125 1.234375 2.109375 C 1.109375 2.265625 1.109375 2.507812 1.234375 2.84375 L 1.5625 3.71875 C 1.945312 4.789062 2.550781 5.5 3.375 5.84375 C 4.207031 6.1875 5.257812 6.125 6.53125 5.65625 C 7.351562 5.351562 8.035156 4.921875 8.578125 4.359375 C 9.128906 3.804688 9.488281 3.144531 9.65625 2.375 C 9.832031 1.613281 9.753906 0.78125 9.421875 -0.125 L 9.125 -0.953125 Z M 1.859375 1.71875 "/></g></g><g style="fill:#000000;fill-opacity:1;"><g transform="translate(64.626086, 227.791299)"><path style="stroke:none" d="M 1.453125 2.96875 L 25.15625 -8.65625 L 26.78125 -5.34375 L 15.46875 0.203125 C 16.582031 1.328125 17.832031 2.328125 19.21875 3.203125 C 20.601562 4.078125 22.054688 4.796875 23.578125 5.359375 C 25.097656 5.921875 26.625 6.300781 28.15625 6.5 C 29.695312 6.695312 31.171875 6.6875 32.578125 6.46875 L 34.375 10.140625 C 32.769531 10.359375 31.164062 10.382812 29.5625 10.21875 C 27.96875 10.050781 26.425781 9.722656 24.9375 9.234375 C 23.445312 8.753906 22.0625 8.160156 20.78125 7.453125 C 19.507812 6.742188 18.390625 5.953125 17.421875 5.078125 L 16.953125 5.3125 C 17.585938 6.613281 17.976562 7.832031 18.125 8.96875 C 18.269531 10.113281 18.207031 11.210938 17.9375 12.265625 C 17.664062 13.316406 17.210938 14.347656 16.578125 15.359375 C 15.941406 16.378906 15.148438 17.398438 14.203125 18.421875 L 10.78125 21.984375 L 8.96875 18.28125 L 11.640625 15.765625 C 12.816406 14.554688 13.734375 13.367188 14.390625 12.203125 C 15.046875 11.035156 15.359375 9.769531 15.328125 8.40625 C 15.304688 7.039062 14.84375 5.4375 13.9375 3.59375 L 12.890625 1.46875 L 3.078125 6.28125 Z M 1.453125 2.96875 "/></g></g><g style="fill:#000000;fill-opacity:1;"><g transform="translate(81.16539, 258.884453)"><path style="stroke:none" d="M 13.90625 15.453125 L 33.53125 -2.21875 L 36 0.53125 L 16.375 18.203125 Z M 2.21875 2.46875 L 21.84375 -15.203125 L 24.3125 -12.46875 L 4.6875 5.203125 Z M 12.28125 -4.109375 L 14.640625 -6.234375 L 26.09375 6.5 L 23.734375 8.625 Z M 12.28125 -4.109375 "/></g></g><g style="fill:#000000;fill-opacity:1;"><g transform="translate(106.939823, 285.432672)"><path style="stroke:none" d="M 0.953125 0.59375 L 22.84375 -16.828125 L 27.34375 -14 L 21.171875 13.296875 L 17.859375 11.203125 L 23.671875 -12.671875 L 23.265625 -12.921875 L 4.296875 2.703125 Z M 7.8125 -2.078125 L 9.3125 -4.453125 L 22.5 3.8125 L 21 6.1875 Z M 7.8125 -2.078125 "/></g></g><g style="fill:#000000;fill-opacity:1;"><g transform="translate(136.94752, 302.397264)"><path style="stroke:none" d="M 0.765625 0.65625 L 1.390625 -2.8125 C 1.648438 -2.675781 1.890625 -2.566406 2.109375 -2.484375 C 2.335938 -2.398438 2.539062 -2.328125 2.71875 -2.265625 C 4.050781 -1.796875 5.140625 -1.648438 5.984375 -1.828125 C 6.828125 -2.003906 7.523438 -2.476562 8.078125 -3.25 C 8.640625 -4.019531 9.148438 -5.050781 9.609375 -6.34375 L 15.390625 -22.546875 L 18.828125 -21.328125 L 13.046875 -5.125 C 12.398438 -3.3125 11.609375 -1.804688 10.671875 -0.609375 C 9.734375 0.578125 8.554688 1.34375 7.140625 1.6875 C 5.734375 2.039062 4.023438 1.859375 2.015625 1.140625 C 1.835938 1.078125 1.65625 1.007812 1.46875 0.9375 C 1.28125 0.875 1.046875 0.78125 0.765625 0.65625 Z M 0.765625 0.65625 "/></g></g><g style="fill:#000000;fill-opacity:1;"><g transform="translate(157.999184, 309.641255)"><path style="stroke:none" d="M 1.109375 0.140625 L 13.625 -24.90625 L 18.890625 -24.25 L 24.8125 3.109375 L 20.90625 2.625 L 16.109375 -21.46875 L 15.65625 -21.53125 L 5.03125 0.625 Z M 6.203125 -5.1875 L 6.5625 -7.96875 L 22 -6.03125 L 21.640625 -3.25 Z M 6.203125 -5.1875 "/></g></g><g style="fill:#000000;fill-opacity:1;"><g transform="translate(192.149036, 312.28309)"><path style="stroke:none" d=""/></g></g><g style="fill:#000000;fill-opacity:1;"><g transform="translate(210.460705, 310.929186)"><path style="stroke:none" d="M 13.1875 -3.328125 C 11.113281 -2.710938 9.125 -2.648438 7.21875 -3.140625 C 5.3125 -3.628906 3.617188 -4.703125 2.140625 -6.359375 C 0.660156 -8.015625 -0.503906 -10.289062 -1.359375 -13.1875 C -1.960938 -15.257812 -2.25 -17.191406 -2.21875 -18.984375 C -2.1875 -20.773438 -1.847656 -22.382812 -1.203125 -23.8125 C -0.554688 -25.25 0.390625 -26.484375 1.640625 -27.515625 C 2.890625 -28.554688 4.457031 -29.351562 6.34375 -29.90625 C 7.738281 -30.3125 9.054688 -30.5 10.296875 -30.46875 C 11.546875 -30.445312 12.695312 -30.234375 13.75 -29.828125 C 14.800781 -29.421875 15.722656 -28.796875 16.515625 -27.953125 C 17.316406 -27.117188 17.957031 -26.09375 18.4375 -24.875 L 15.3125 -22.953125 C 14.945312 -23.984375 14.460938 -24.8125 13.859375 -25.4375 C 13.253906 -26.070312 12.578125 -26.519531 11.828125 -26.78125 C 11.085938 -27.050781 10.320312 -27.179688 9.53125 -27.171875 C 8.738281 -27.171875 7.945312 -27.050781 7.15625 -26.8125 C 6.070312 -26.5 5.101562 -26.015625 4.25 -25.359375 C 3.40625 -24.710938 2.75 -23.882812 2.28125 -22.875 C 1.8125 -21.875 1.554688 -20.671875 1.515625 -19.265625 C 1.484375 -17.859375 1.738281 -16.226562 2.28125 -14.375 C 2.84375 -12.457031 3.523438 -10.914062 4.328125 -9.75 C 5.128906 -8.582031 6.003906 -7.726562 6.953125 -7.1875 C 7.910156 -6.644531 8.894531 -6.34375 9.90625 -6.28125 C 10.925781 -6.21875 11.9375 -6.332031 12.9375 -6.625 C 14.269531 -7.007812 15.347656 -7.597656 16.171875 -8.390625 C 16.992188 -9.191406 17.550781 -10.195312 17.84375 -11.40625 C 18.144531 -12.625 18.125 -14.050781 17.78125 -15.6875 L 12.109375 -14.015625 L 11.296875 -16.8125 L 20.46875 -19.5 L 21.59375 -15.65625 L 24.109375 -7.0625 L 21.234375 -6.21875 L 19.921875 -13.375 L 19.34375 -13.203125 C 19.5 -11.453125 19.390625 -9.925781 19.015625 -8.625 C 18.640625 -7.320312 17.96875 -6.226562 17 -5.34375 C 16.039062 -4.457031 14.769531 -3.785156 13.1875 -3.328125 Z M 13.1875 -3.328125 "/></g></g><g style="fill:#000000;fill-opacity:1;"><g transform="translate(245.600249, 299.253693)"><path style="stroke:none" d="M 17.515625 -11.203125 L 3.28125 -33.4375 L 6.390625 -35.4375 L 20.625 -13.203125 Z M 2.796875 -1.78125 L -11.4375 -24.015625 L -8.34375 -26.015625 L 5.890625 -3.78125 Z M -2.0625 -12.78125 L -3.765625 -15.453125 L 10.65625 -24.6875 L 12.359375 -22.015625 Z M -2.0625 -12.78125 "/></g></g><g style="fill:#000000;fill-opacity:1;"><g transform="translate(275.987907, 278.1425)"><path style="stroke:none" d="M 0.75 -0.84375 L -12.890625 -25.28125 L -9.375 -29.265625 L 16.5625 -18.734375 L 13.96875 -15.796875 L -8.65625 -25.40625 L -8.953125 -25.0625 L 3.359375 -3.796875 Z M -0.78125 -8.046875 L -2.875 -9.90625 L 7.4375 -21.578125 L 9.53125 -19.71875 Z M -0.78125 -8.046875 "/></g></g><g style="fill:#000000;fill-opacity:1;"><g transform="translate(298.364622, 250.954176)"><path style="stroke:none" d="M 1.453125 -2.96875 L -22.265625 -14.578125 L -18.21875 -22.84375 C -17.65625 -24 -17.035156 -25.019531 -16.359375 -25.90625 C -15.691406 -26.800781 -14.988281 -27.546875 -14.25 -28.140625 C -13.507812 -28.742188 -12.722656 -29.179688 -11.890625 -29.453125 C -11.054688 -29.734375 -10.195312 -29.835938 -9.3125 -29.765625 C -8.4375 -29.691406 -7.535156 -29.429688 -6.609375 -28.984375 C -5.785156 -28.578125 -5.085938 -28.078125 -4.515625 -27.484375 C -3.953125 -26.898438 -3.523438 -26.234375 -3.234375 -25.484375 C -2.953125 -24.734375 -2.828125 -23.898438 -2.859375 -22.984375 C -2.898438 -22.066406 -3.109375 -21.070312 -3.484375 -20 L -3.046875 -19.796875 C -2.515625 -20.578125 -1.921875 -21.207031 -1.265625 -21.6875 C -0.617188 -22.175781 0.15625 -22.5 1.0625 -22.65625 C 1.976562 -22.820312 3.097656 -22.785156 4.421875 -22.546875 L 10.5 -21.4375 L 8.75 -17.890625 L 3.390625 -19 C 2.234375 -19.269531 1.21875 -19.28125 0.34375 -19.03125 C -0.53125 -18.789062 -1.28125 -18.375 -1.90625 -17.78125 C -2.539062 -17.1875 -3.078125 -16.445312 -3.515625 -15.5625 L -5.90625 -10.671875 L 3.078125 -6.28125 Z M -8.59375 -12 L -6.65625 -15.96875 C -6.425781 -16.4375 -6.175781 -16.988281 -5.90625 -17.625 C -5.632812 -18.269531 -5.410156 -18.945312 -5.234375 -19.65625 C -5.054688 -20.375 -5 -21.082031 -5.0625 -21.78125 C -5.132812 -22.476562 -5.378906 -23.140625 -5.796875 -23.765625 C -6.222656 -24.390625 -6.890625 -24.925781 -7.796875 -25.375 C -8.734375 -25.832031 -9.578125 -26.035156 -10.328125 -25.984375 C -11.085938 -25.929688 -11.753906 -25.722656 -12.328125 -25.359375 C -12.910156 -24.992188 -13.421875 -24.546875 -13.859375 -24.015625 C -14.296875 -23.492188 -14.660156 -22.96875 -14.953125 -22.4375 C -15.253906 -21.914062 -15.5 -21.46875 -15.6875 -21.09375 L -17.90625 -16.546875 Z M -8.59375 -12 "/></g></g><g style="fill:#000000;fill-opacity:1;"><g transform="translate(174.081513, 249.56886)"><path style="stroke:none" d="M 2.3125 0.078125 C 1.882812 0.078125 1.5 0.015625 1.15625 -0.109375 C 0.820312 -0.234375 0.554688 -0.363281 0.359375 -0.5 L 0.328125 -1.625 L 0.421875 -1.640625 C 0.523438 -1.359375 0.664062 -1.097656 0.84375 -0.859375 C 1.019531 -0.617188 1.242188 -0.425781 1.515625 -0.28125 C 1.785156 -0.132812 2.109375 -0.0625 2.484375 -0.0625 C 2.691406 -0.0625 2.890625 -0.101562 3.078125 -0.1875 C 3.265625 -0.28125 3.410156 -0.410156 3.515625 -0.578125 C 3.628906 -0.742188 3.6875 -0.929688 3.6875 -1.140625 C 3.6875 -1.347656 3.628906 -1.523438 3.515625 -1.671875 C 3.410156 -1.828125 3.269531 -1.960938 3.09375 -2.078125 C 2.925781 -2.191406 2.742188 -2.289062 2.546875 -2.375 C 2.359375 -2.457031 2.175781 -2.535156 2 -2.609375 C 1.6875 -2.734375 1.410156 -2.863281 1.171875 -3 C 0.941406 -3.132812 0.757812 -3.296875 0.625 -3.484375 C 0.5 -3.671875 0.4375 -3.90625 0.4375 -4.1875 C 0.4375 -4.507812 0.519531 -4.785156 0.6875 -5.015625 C 0.851562 -5.242188 1.082031 -5.421875 1.375 -5.546875 C 1.675781 -5.679688 2.023438 -5.75 2.421875 -5.75 C 2.785156 -5.75 3.097656 -5.707031 3.359375 -5.625 C 3.628906 -5.539062 3.84375 -5.457031 4 -5.375 L 4.03125 -4.421875 L 3.953125 -4.40625 C 3.804688 -4.757812 3.585938 -5.046875 3.296875 -5.265625 C 3.003906 -5.492188 2.625 -5.609375 2.15625 -5.609375 C 1.945312 -5.609375 1.75 -5.566406 1.5625 -5.484375 C 1.375 -5.398438 1.222656 -5.28125 1.109375 -5.125 C 0.992188 -4.96875 0.9375 -4.773438 0.9375 -4.546875 C 0.9375 -4.347656 0.984375 -4.175781 1.078125 -4.03125 C 1.171875 -3.894531 1.289062 -3.773438 1.4375 -3.671875 C 1.59375 -3.578125 1.757812 -3.488281 1.9375 -3.40625 C 2.113281 -3.332031 2.289062 -3.257812 2.46875 -3.1875 C 2.769531 -3.0625 3.050781 -2.929688 3.3125 -2.796875 C 3.582031 -2.660156 3.800781 -2.492188 3.96875 -2.296875 C 4.132812 -2.109375 4.21875 -1.859375 4.21875 -1.546875 C 4.21875 -1.210938 4.125 -0.921875 3.9375 -0.671875 C 3.757812 -0.429688 3.523438 -0.242188 3.234375 -0.109375 C 2.941406 0.015625 2.632812 0.078125 2.3125 0.078125 Z M 2.3125 0.078125 "/></g></g><g style="fill:#000000;fill-opacity:1;"><g transform="translate(180.338207, 249.56886)"><path style="stroke:none" d="M 0.265625 0 L 0.265625 -0.109375 C 0.390625 -0.140625 0.472656 -0.21875 0.515625 -0.34375 C 0.554688 -0.46875 0.578125 -0.695312 0.578125 -1.03125 L 0.578125 -2.90625 C 0.578125 -3.09375 0.566406 -3.234375 0.546875 -3.328125 C 0.523438 -3.421875 0.488281 -3.488281 0.4375 -3.53125 C 0.394531 -3.570312 0.335938 -3.609375 0.265625 -3.640625 L 0.265625 -3.734375 L 1.15625 -4.125 L 1.21875 -4.078125 L 1.21875 -1.03125 C 1.21875 -0.695312 1.238281 -0.46875 1.28125 -0.34375 C 1.332031 -0.21875 1.421875 -0.140625 1.546875 -0.109375 L 1.546875 0 Z M 0.40625 -5.0625 C 0.40625 -5.195312 0.445312 -5.304688 0.53125 -5.390625 C 0.625 -5.484375 0.734375 -5.53125 0.859375 -5.53125 C 0.984375 -5.53125 1.085938 -5.484375 1.171875 -5.390625 C 1.253906 -5.304688 1.296875 -5.195312 1.296875 -5.0625 C 1.296875 -4.945312 1.253906 -4.84375 1.171875 -4.75 C 1.085938 -4.664062 0.984375 -4.625 0.859375 -4.625 C 0.734375 -4.625 0.625 -4.664062 0.53125 -4.75 C 0.445312 -4.84375 0.40625 -4.945312 0.40625 -5.0625 Z M 0.40625 -5.0625 "/></g></g><g style="fill:#000000;fill-opacity:1;"><g transform="translate(183.946092, 249.56886)"><path style="stroke:none" d="M 0.265625 0 L 0.265625 -0.109375 C 0.390625 -0.140625 0.472656 -0.21875 0.515625 -0.34375 C 0.554688 -0.46875 0.578125 -0.695312 0.578125 -1.03125 L 0.578125 -2.90625 C 0.578125 -3.09375 0.566406 -3.234375 0.546875 -3.328125 C 0.523438 -3.421875 0.488281 -3.488281 0.4375 -3.53125 C 0.394531 -3.570312 0.335938 -3.609375 0.265625 -3.640625 L 0.265625 -3.734375 L 1.15625 -4.125 L 1.21875 -4.078125 L 1.21875 -3.375 C 1.457031 -3.5625 1.722656 -3.734375 2.015625 -3.890625 C 2.316406 -4.046875 2.625 -4.125 2.9375 -4.125 C 3.34375 -4.125 3.65625 -4.003906 3.875 -3.765625 C 4.101562 -3.535156 4.21875 -3.179688 4.21875 -2.703125 L 4.21875 -1.03125 C 4.21875 -0.695312 4.238281 -0.46875 4.28125 -0.34375 C 4.332031 -0.21875 4.421875 -0.140625 4.546875 -0.109375 L 4.546875 0 L 3.265625 0 L 3.265625 -0.109375 C 3.390625 -0.140625 3.472656 -0.21875 3.515625 -0.34375 C 3.566406 -0.46875 3.59375 -0.695312 3.59375 -1.03125 L 3.59375 -2.546875 C 3.59375 -2.960938 3.503906 -3.28125 3.328125 -3.5 C 3.148438 -3.726562 2.878906 -3.84375 2.515625 -3.84375 C 2.296875 -3.84375 2.078125 -3.785156 1.859375 -3.671875 C 1.640625 -3.554688 1.425781 -3.410156 1.21875 -3.234375 L 1.21875 -1.03125 C 1.21875 -0.695312 1.238281 -0.46875 1.28125 -0.34375 C 1.332031 -0.21875 1.421875 -0.140625 1.546875 -0.109375 L 1.546875 0 Z M 0.265625 0 "/></g></g><g style="fill:#000000;fill-opacity:1;"><g transform="translate(190.470914, 249.56886)"><path style="stroke:none" d="M 2.21875 0.078125 C 1.90625 0.078125 1.597656 0.00390625 1.296875 -0.140625 C 1.003906 -0.285156 0.765625 -0.507812 0.578125 -0.8125 C 0.390625 -1.113281 0.296875 -1.476562 0.296875 -1.90625 C 0.296875 -2.332031 0.394531 -2.710938 0.59375 -3.046875 C 0.800781 -3.378906 1.070312 -3.640625 1.40625 -3.828125 C 1.738281 -4.023438 2.101562 -4.125 2.5 -4.125 C 2.757812 -4.125 2.992188 -4.097656 3.203125 -4.046875 C 3.410156 -4.003906 3.578125 -3.953125 3.703125 -3.890625 C 3.828125 -3.828125 3.890625 -3.757812 3.890625 -3.6875 C 3.890625 -3.59375 3.832031 -3.492188 3.71875 -3.390625 C 3.613281 -3.285156 3.5 -3.234375 3.375 -3.234375 C 3.1875 -3.234375 2.773438 -3.484375 2.140625 -3.984375 C 1.753906 -3.921875 1.445312 -3.734375 1.21875 -3.421875 C 0.988281 -3.117188 0.875 -2.75 0.875 -2.3125 C 0.875 -1.9375 0.941406 -1.609375 1.078125 -1.328125 C 1.222656 -1.046875 1.425781 -0.828125 1.6875 -0.671875 C 1.957031 -0.515625 2.265625 -0.4375 2.609375 -0.4375 C 2.929688 -0.4375 3.207031 -0.5 3.4375 -0.625 C 3.664062 -0.757812 3.875 -0.929688 4.0625 -1.140625 L 4.140625 -1.0625 C 4.003906 -0.875 3.835938 -0.691406 3.640625 -0.515625 C 3.453125 -0.335938 3.238281 -0.191406 3 -0.078125 C 2.769531 0.0234375 2.507812 0.078125 2.21875 0.078125 Z M 2.21875 0.078125 "/></g></g><g style="fill:#000000;fill-opacity:1;"><g transform="translate(196.548854, 249.56886)"><path style="stroke:none" d="M 2.21875 0.078125 C 2 0.078125 1.773438 0.0390625 1.546875 -0.03125 C 1.316406 -0.113281 1.109375 -0.238281 0.921875 -0.40625 C 0.734375 -0.570312 0.582031 -0.78125 0.46875 -1.03125 C 0.351562 -1.28125 0.296875 -1.570312 0.296875 -1.90625 C 0.296875 -2.351562 0.394531 -2.738281 0.59375 -3.0625 C 0.789062 -3.394531 1.050781 -3.65625 1.375 -3.84375 C 1.695312 -4.03125 2.046875 -4.125 2.421875 -4.125 C 2.765625 -4.125 3.054688 -4.054688 3.296875 -3.921875 C 3.546875 -3.785156 3.734375 -3.609375 3.859375 -3.390625 C 3.992188 -3.179688 4.066406 -2.945312 4.078125 -2.6875 L 0.890625 -2.6875 C 0.878906 -2.5625 0.875 -2.4375 0.875 -2.3125 C 0.875 -1.9375 0.941406 -1.609375 1.078125 -1.328125 C 1.222656 -1.046875 1.425781 -0.828125 1.6875 -0.671875 C 1.957031 -0.515625 2.265625 -0.4375 2.609375 -0.4375 C 2.929688 -0.4375 3.207031 -0.5 3.4375 -0.625 C 3.664062 -0.757812 3.875 -0.929688 4.0625 -1.140625 L 4.140625 -1.0625 C 4.003906 -0.875 3.835938 -0.691406 3.640625 -0.515625 C 3.453125 -0.335938 3.238281 -0.191406 3 -0.078125 C 2.769531 0.0234375 2.507812 0.078125 2.21875 0.078125 Z M 0.921875 -2.78125 L 3.421875 -2.78125 C 3.390625 -2.96875 3.320312 -3.148438 3.21875 -3.328125 C 3.113281 -3.515625 2.972656 -3.664062 2.796875 -3.78125 C 2.617188 -3.90625 2.40625 -3.96875 2.15625 -3.96875 C 1.8125 -3.976562 1.535156 -3.867188 1.328125 -3.640625 C 1.117188 -3.410156 0.984375 -3.125 0.921875 -2.78125 Z M 0.921875 -2.78125 "/></g></g><g style="fill:#000000;fill-opacity:1;"><g transform="translate(175.939571, 258.047309)"><path style="stroke:none" d="M 0.046875 -0.109375 C 0.265625 -0.328125 0.5 -0.5625 0.75 -0.8125 C 1.007812 -1.0625 1.257812 -1.320312 1.5 -1.59375 C 1.75 -1.863281 1.972656 -2.144531 2.171875 -2.4375 C 2.367188 -2.726562 2.523438 -3.023438 2.640625 -3.328125 C 2.765625 -3.628906 2.828125 -3.929688 2.828125 -4.234375 C 2.828125 -4.566406 2.734375 -4.832031 2.546875 -5.03125 C 2.359375 -5.226562 2.101562 -5.328125 1.78125 -5.328125 C 1.570312 -5.328125 1.363281 -5.28125 1.15625 -5.1875 C 0.957031 -5.09375 0.769531 -4.953125 0.59375 -4.765625 L 0.53125 -4.828125 C 0.75 -5.097656 0.992188 -5.316406 1.265625 -5.484375 C 1.546875 -5.660156 1.867188 -5.75 2.234375 -5.75 C 2.472656 -5.75 2.691406 -5.695312 2.890625 -5.59375 C 3.085938 -5.488281 3.242188 -5.335938 3.359375 -5.140625 C 3.484375 -4.941406 3.546875 -4.707031 3.546875 -4.4375 C 3.546875 -4.125 3.476562 -3.816406 3.34375 -3.515625 C 3.21875 -3.222656 3.046875 -2.9375 2.828125 -2.65625 C 2.609375 -2.375 2.367188 -2.101562 2.109375 -1.84375 C 1.859375 -1.59375 1.601562 -1.351562 1.34375 -1.125 C 1.09375 -0.90625 0.867188 -0.710938 0.671875 -0.546875 L 2.53125 -0.546875 C 2.800781 -0.546875 3.003906 -0.5625 3.140625 -0.59375 C 3.285156 -0.632812 3.394531 -0.695312 3.46875 -0.78125 C 3.539062 -0.875 3.597656 -0.992188 3.640625 -1.140625 L 3.734375 -1.140625 L 3.609375 0 L 0.046875 0 Z M 0.046875 -0.109375 "/></g></g><g style="fill:#000000;fill-opacity:1;"><g transform="translate(181.757505, 258.047309)"><path style="stroke:none" d="M 2.796875 0.078125 C 2.515625 0.078125 2.222656 0.0195312 1.921875 -0.09375 C 1.628906 -0.21875 1.359375 -0.398438 1.109375 -0.640625 C 0.867188 -0.878906 0.671875 -1.1875 0.515625 -1.5625 C 0.367188 -1.9375 0.296875 -2.367188 0.296875 -2.859375 C 0.296875 -3.304688 0.363281 -3.707031 0.5 -4.0625 C 0.632812 -4.414062 0.816406 -4.71875 1.046875 -4.96875 C 1.273438 -5.21875 1.535156 -5.410156 1.828125 -5.546875 C 2.128906 -5.679688 2.4375 -5.75 2.75 -5.75 C 3.03125 -5.75 3.316406 -5.6875 3.609375 -5.5625 C 3.910156 -5.4375 4.179688 -5.253906 4.421875 -5.015625 C 4.671875 -4.773438 4.867188 -4.46875 5.015625 -4.09375 C 5.160156 -3.726562 5.234375 -3.296875 5.234375 -2.796875 C 5.234375 -2.359375 5.164062 -1.960938 5.03125 -1.609375 C 4.894531 -1.253906 4.710938 -0.945312 4.484375 -0.6875 C 4.253906 -0.4375 3.992188 -0.242188 3.703125 -0.109375 C 3.410156 0.015625 3.109375 0.078125 2.796875 0.078125 Z M 0.953125 -3.34375 C 0.953125 -2.9375 1 -2.539062 1.09375 -2.15625 C 1.195312 -1.769531 1.34375 -1.421875 1.53125 -1.109375 C 1.71875 -0.796875 1.941406 -0.546875 2.203125 -0.359375 C 2.460938 -0.171875 2.757812 -0.078125 3.09375 -0.078125 C 3.414062 -0.078125 3.6875 -0.171875 3.90625 -0.359375 C 4.125 -0.554688 4.289062 -0.820312 4.40625 -1.15625 C 4.519531 -1.5 4.578125 -1.882812 4.578125 -2.3125 C 4.578125 -2.71875 4.53125 -3.113281 4.4375 -3.5 C 4.34375 -3.894531 4.203125 -4.25 4.015625 -4.5625 C 3.828125 -4.875 3.601562 -5.117188 3.34375 -5.296875 C 3.082031 -5.484375 2.796875 -5.578125 2.484375 -5.578125 C 2.148438 -5.578125 1.867188 -5.476562 1.640625 -5.28125 C 1.421875 -5.09375 1.253906 -4.832031 1.140625 -4.5 C 1.023438 -4.164062 0.960938 -3.78125 0.953125 -3.34375 Z M 0.953125 -3.34375 "/></g></g><g style="fill:#000000;fill-opacity:1;"><g transform="translate(189.078596, 258.047309)"><path style="stroke:none" d="M 0.046875 -0.109375 C 0.265625 -0.328125 0.5 -0.5625 0.75 -0.8125 C 1.007812 -1.0625 1.257812 -1.320312 1.5 -1.59375 C 1.75 -1.863281 1.972656 -2.144531 2.171875 -2.4375 C 2.367188 -2.726562 2.523438 -3.023438 2.640625 -3.328125 C 2.765625 -3.628906 2.828125 -3.929688 2.828125 -4.234375 C 2.828125 -4.566406 2.734375 -4.832031 2.546875 -5.03125 C 2.359375 -5.226562 2.101562 -5.328125 1.78125 -5.328125 C 1.570312 -5.328125 1.363281 -5.28125 1.15625 -5.1875 C 0.957031 -5.09375 0.769531 -4.953125 0.59375 -4.765625 L 0.53125 -4.828125 C 0.75 -5.097656 0.992188 -5.316406 1.265625 -5.484375 C 1.546875 -5.660156 1.867188 -5.75 2.234375 -5.75 C 2.472656 -5.75 2.691406 -5.695312 2.890625 -5.59375 C 3.085938 -5.488281 3.242188 -5.335938 3.359375 -5.140625 C 3.484375 -4.941406 3.546875 -4.707031 3.546875 -4.4375 C 3.546875 -4.125 3.476562 -3.816406 3.34375 -3.515625 C 3.21875 -3.222656 3.046875 -2.9375 2.828125 -2.65625 C 2.609375 -2.375 2.367188 -2.101562 2.109375 -1.84375 C 1.859375 -1.59375 1.601562 -1.351562 1.34375 -1.125 C 1.09375 -0.90625 0.867188 -0.710938 0.671875 -0.546875 L 2.53125 -0.546875 C 2.800781 -0.546875 3.003906 -0.5625 3.140625 -0.59375 C 3.285156 -0.632812 3.394531 -0.695312 3.46875 -0.78125 C 3.539062 -0.875 3.597656 -0.992188 3.640625 -1.140625 L 3.734375 -1.140625 L 3.609375 0 L 0.046875 0 Z M 0.046875 -0.109375 "/></g></g><g style="fill:#000000;fill-opacity:1;"><g transform="translate(194.89653, 258.047309)"><path style="stroke:none" d="M 0.125 -1.4375 L 0.078125 -1.515625 L 3.140625 -5.75 L 3.28125 -5.75 L 3.28125 -1.859375 L 3.9375 -1.859375 L 3.953125 -1.84375 L 3.890625 -1.5625 C 3.878906 -1.519531 3.851562 -1.488281 3.8125 -1.46875 C 3.78125 -1.457031 3.742188 -1.453125 3.703125 -1.453125 L 3.28125 -1.453125 L 3.28125 -1.03125 C 3.28125 -0.695312 3.300781 -0.46875 3.34375 -0.34375 C 3.382812 -0.21875 3.46875 -0.140625 3.59375 -0.109375 L 3.59375 0 L 2.296875 0 L 2.296875 -0.109375 C 2.421875 -0.140625 2.503906 -0.21875 2.546875 -0.34375 C 2.585938 -0.46875 2.609375 -0.695312 2.609375 -1.03125 L 2.609375 -1.4375 Z M 0.484375 -1.859375 L 2.609375 -1.859375 L 2.609375 -4.8125 Z M 0.484375 -1.859375 "/></g></g><g style="fill:#000000;fill-opacity:1;"><g transform="translate(95.040684, 158.093188)"><path style="stroke:none" d="M 3.921875 -9.640625 L -24.453125 -21.1875 L -22.84375 -25.140625 L 5.53125 -13.59375 Z M -24.515625 -11.171875 L -27.953125 -12.578125 L -19.34375 -33.734375 L -15.90625 -32.328125 Z M -24.515625 -11.171875 "/></g></g><g style="fill:#000000;fill-opacity:1;"><g transform="translate(105.009058, 132.91663)"><path style="stroke:none" d="M 15.703125 -18.328125 L -7.5625 -38.265625 L -4.78125 -41.515625 L 18.484375 -21.578125 Z M 2.515625 -2.9375 L -20.75 -22.875 L -17.984375 -26.109375 L 5.28125 -6.171875 Z M -6.578125 -13.515625 L -9.359375 -15.90625 L 3.578125 -31 L 6.359375 -28.609375 Z M -6.578125 -13.515625 "/></g></g><g style="fill:#000000;fill-opacity:1;"><g transform="translate(127.147587, 107.426271)"><path style="stroke:none" d="M 14.640625 -7.40625 C 13.203125 -6.601562 11.804688 -6.03125 10.453125 -5.6875 C 9.097656 -5.351562 7.800781 -5.238281 6.5625 -5.34375 C 5.320312 -5.457031 4.15625 -5.78125 3.0625 -6.3125 C 1.976562 -6.84375 0.976562 -7.578125 0.0625 -8.515625 C -0.84375 -9.460938 -1.671875 -10.617188 -2.421875 -11.984375 L -11.609375 -28.59375 L -7.875 -30.65625 L 1.21875 -14.203125 C 2.019531 -12.765625 2.96875 -11.613281 4.0625 -10.75 C 5.15625 -9.894531 6.421875 -9.441406 7.859375 -9.390625 C 9.304688 -9.335938 10.9375 -9.816406 12.75 -10.828125 C 14.613281 -11.859375 15.898438 -12.992188 16.609375 -14.234375 C 17.316406 -15.472656 17.585938 -16.785156 17.421875 -18.171875 C 17.253906 -19.566406 16.78125 -20.96875 16 -22.375 L 6.90625 -38.828125 L 10.640625 -40.90625 L 19.828125 -24.296875 C 20.796875 -22.535156 21.398438 -20.847656 21.640625 -19.234375 C 21.878906 -17.617188 21.773438 -16.097656 21.328125 -14.671875 C 20.878906 -13.242188 20.09375 -11.914062 18.96875 -10.6875 C 17.84375 -9.46875 16.398438 -8.375 14.640625 -7.40625 Z M 14.640625 -7.40625 "/></g></g><g style="fill:#000000;fill-opacity:1;"><g transform="translate(157.974585, 91.582403)"><path style="stroke:none" d="M 3.796875 -0.71875 L -1.953125 -30.8125 L 2.234375 -31.625 L 7.984375 -1.53125 Z M 5.15625 -0.984375 L 4.453125 -4.640625 L 21.28125 -7.859375 L 21.984375 -4.203125 Z M 5.15625 -0.984375 "/></g></g><g style="fill:#000000;fill-opacity:1;"><g transform="translate(182.847993, 86.390337)"><path style="stroke:none" d="M 16.21875 2.703125 C 14.007812 2.421875 12.113281 1.800781 10.53125 0.84375 C 8.957031 -0.113281 7.679688 -1.351562 6.703125 -2.875 C 5.734375 -4.40625 5.082031 -6.164062 4.75 -8.15625 C 4.414062 -10.15625 4.398438 -12.335938 4.703125 -14.703125 C 5.148438 -18.222656 6.109375 -21.085938 7.578125 -23.296875 C 9.046875 -25.503906 10.875 -27.070312 13.0625 -28 C 15.257812 -28.925781 17.679688 -29.222656 20.328125 -28.890625 C 22.390625 -28.617188 24.203125 -28.023438 25.765625 -27.109375 C 27.328125 -26.191406 28.601562 -24.972656 29.59375 -23.453125 C 30.582031 -21.941406 31.269531 -20.15625 31.65625 -18.09375 C 32.050781 -16.03125 32.085938 -13.742188 31.765625 -11.234375 C 31.453125 -8.835938 30.878906 -6.710938 30.046875 -4.859375 C 29.222656 -3.015625 28.144531 -1.484375 26.8125 -0.265625 C 25.488281 0.941406 23.9375 1.804688 22.15625 2.328125 C 20.382812 2.859375 18.40625 2.984375 16.21875 2.703125 Z M 16.6875 -0.9375 C 17.644531 -0.8125 18.679688 -0.847656 19.796875 -1.046875 C 20.910156 -1.253906 21.988281 -1.722656 23.03125 -2.453125 C 24.082031 -3.179688 25 -4.285156 25.78125 -5.765625 C 26.570312 -7.253906 27.125 -9.226562 27.4375 -11.6875 C 27.8125 -14.601562 27.691406 -17.007812 27.078125 -18.90625 C 26.460938 -20.8125 25.515625 -22.273438 24.234375 -23.296875 C 22.960938 -24.328125 21.5 -24.953125 19.84375 -25.171875 C 18.957031 -25.285156 17.957031 -25.242188 16.84375 -25.046875 C 15.726562 -24.859375 14.632812 -24.398438 13.5625 -23.671875 C 12.5 -22.941406 11.554688 -21.816406 10.734375 -20.296875 C 9.921875 -18.773438 9.351562 -16.726562 9.03125 -14.15625 C 8.726562 -11.789062 8.742188 -9.796875 9.078125 -8.171875 C 9.410156 -6.546875 9.972656 -5.222656 10.765625 -4.203125 C 11.554688 -3.179688 12.460938 -2.414062 13.484375 -1.90625 C 14.515625 -1.40625 15.582031 -1.082031 16.6875 -0.9375 Z M 16.6875 -0.9375 "/></g></g><g style="fill:#000000;fill-opacity:1;"><g transform="translate(217.69869, 92.615032)"><path style="stroke:none" d=""/></g></g><g style="fill:#000000;fill-opacity:1;"><g transform="translate(231.478133, 97.304838)"><path style="stroke:none" d="M 4.890625 3.703125 L 7.109375 0.78125 L 14.328125 6.25 C 15.484375 7.125 16.675781 7.691406 17.90625 7.953125 C 19.132812 8.222656 20.363281 8.195312 21.59375 7.875 C 22.832031 7.550781 24.039062 6.945312 25.21875 6.0625 C 26.40625 5.175781 27.539062 4.015625 28.625 2.578125 C 29.707031 1.140625 30.53125 -0.265625 31.09375 -1.640625 C 31.664062 -3.015625 31.953125 -4.347656 31.953125 -5.640625 C 31.953125 -6.941406 31.578125 -8.210938 30.828125 -9.453125 C 30.085938 -10.703125 28.925781 -11.925781 27.34375 -13.125 L 21.171875 -17.796875 L 23.390625 -20.734375 L 29.484375 -16.125 C 32.253906 -14.03125 34.148438 -11.835938 35.171875 -9.546875 C 36.191406 -7.253906 36.4375 -4.890625 35.90625 -2.453125 C 35.382812 -0.015625 34.179688 2.453125 32.296875 4.953125 C 30.835938 6.867188 29.359375 8.363281 27.859375 9.4375 C 26.367188 10.519531 24.898438 11.265625 23.453125 11.671875 C 22.003906 12.078125 20.597656 12.207031 19.234375 12.0625 C 17.867188 11.914062 16.585938 11.585938 15.390625 11.078125 C 14.203125 10.566406 13.128906 9.945312 12.171875 9.21875 Z M 3.078125 2.328125 L 21.578125 -22.109375 L 24.984375 -19.53125 L 6.484375 4.90625 Z M 3.078125 2.328125 "/></g></g><g style="fill:#000000;fill-opacity:1;"><g transform="translate(257.72153, 117.661879)"><path style="stroke:none" d="M 0.703125 1.078125 L 32.234375 -6.703125 L 35.625 -1.53125 L 15.90625 24.265625 L 13.40625 20.46875 L 31.109375 -1.90625 L 30.8125 -2.359375 L 3.234375 4.921875 Z M 9.265625 1.59375 L 11.984375 -0.1875 L 21.875 14.921875 L 19.15625 16.703125 Z M 9.265625 1.59375 "/></g></g><g style="fill:#000000;fill-opacity:1;"><g transform="translate(274.536985, 146.068131)"><path style="stroke:none" d="M 1.234375 3.65625 L 30.25 -6.171875 L 31.640625 -2.09375 L 2.625 7.734375 Z M 1.234375 3.65625 "/></g></g><path style=" stroke:none;fill-rule:nonzero;fill:#fffbe4;fill-opacity:1;" d="M 158.378906 184.261719 C 143.667969 181.296875 137.632812 161.296875 150.851562 156.582031 C 151.667969 156.21875 153.65625 154.964844 155.09375 152.863281 C 156.886719 150.238281 158.542969 150.03125 159.855469 153.902344 C 161.171875 157.777344 163.714844 152.566406 165.457031 151.804688 C 167.203125 151.046875 166.558594 154.070312 167.207031 155.507812 C 167.964844 157.179688 168.644531 156.894531 171.449219 154.273438 C 174.257812 151.648438 175.042969 158.355469 175.847656 162.035156 C 187.132812 170.804688 172.972656 187.203125 158.378906 184.261719 Z M 158.378906 184.261719 "/><g clip-rule="nonzero" clip-path="url(#f464ed5f82)"><path style="fill:none;stroke-width:30.181999;stroke-linecap:butt;stroke-linejoin:miter;stroke:#221d20;stroke-opacity:1;stroke-miterlimit:4;" d="M 333.909069 677.271906 C 61.890461 622.44925 -49.705065 252.631067 194.72164 165.44932 C 209.817734 158.73192 246.582862 135.546053 273.163543 96.686252 C 306.317166 48.147616 336.942734 44.31942 361.212052 115.899462 C 385.5536 187.551735 432.575404 91.196763 464.790035 77.111891 C 497.076896 63.099249 485.158927 119.005357 497.149126 145.586039 C 511.161768 176.500528 523.729808 171.227729 575.591029 122.761323 C 627.524481 74.222687 642.042734 198.241792 656.922138 266.282559 C 865.594936 428.439164 603.760774 731.661182 333.909069 677.271906 Z M 333.909069 677.271906 " transform="matrix(0.0540806,0,0,0.0540806,140.320894,147.634428)"/></g><g clip-rule="nonzero" clip-path="url(#451027f19d)"><path style="fill:none;stroke-width:30.181999;stroke-linecap:butt;stroke-linejoin:miter;stroke:#221d20;stroke-opacity:1;stroke-miterlimit:4;" d="M 367.423842 205.031423 L 289.8487 260.070769 M 426.363615 217.888383 L 411.411981 286.579221 " transform="matrix(0.0540806,0,0,0.0540806,140.320894,147.634428)"/></g><path style="fill:none;stroke-width:30.181999;stroke-linecap:butt;stroke-linejoin:miter;stroke:#221d20;stroke-opacity:1;stroke-miterlimit:4;" d="M 483.714325 228.145059 L 530.663899 301.314164 " transform="matrix(0.0540806,0,0,0.0540806,140.320894,147.634428)"/><path style="fill:none;stroke-width:22.820999;stroke-linecap:round;stroke-linejoin:miter;stroke:#221d20;stroke-opacity:1;stroke-miterlimit:4;" d="M 212.995859 356.714661 C 228.525333 347.035826 263.484708 336.345769 279.158643 371.160684 " transform="matrix(0.0540806,0,0,0.0540806,140.320894,147.634428)"/><path style="fill:none;stroke-width:22.820999;stroke-linecap:round;stroke-linejoin:miter;stroke:#221d20;stroke-opacity:1;stroke-miterlimit:4;" d="M 474.830021 413.848681 C 490.359495 404.169846 525.24664 393.479789 540.992805 428.294704 " transform="matrix(0.0540806,0,0,0.0540806,140.320894,147.634428)"/><path style=" stroke:none;fill-rule:nonzero;fill:#231f20;fill-opacity:1;" d="M 155.066406 172.5625 C 154.628906 172.464844 154.195312 172.742188 154.152344 173.1875 C 154.105469 173.753906 154.128906 174.328125 154.230469 174.890625 C 154.378906 175.71875 154.691406 176.507812 155.144531 177.21875 C 155.597656 177.925781 156.1875 178.539062 156.878906 179.019531 C 157.570312 179.5 158.351562 179.839844 159.171875 180.019531 C 159.996094 180.195312 160.84375 180.210938 161.671875 180.0625 C 162.5 179.914062 163.292969 179.605469 164 179.148438 C 164.710938 178.695312 165.320312 178.105469 165.800781 177.414062 C 166.128906 176.945312 166.390625 176.433594 166.578125 175.898438 C 166.730469 175.476562 166.449219 175.042969 166.011719 174.949219 L 160.539062 173.753906 Z M 155.066406 172.5625 "/><path style=" stroke:none;fill-rule:nonzero;fill:#fffbe4;fill-opacity:1;" d="M 205.972656 184.261719 C 191.261719 181.296875 185.226562 161.296875 198.445312 156.582031 C 199.261719 156.21875 201.25 154.964844 202.6875 152.863281 C 204.480469 150.238281 206.136719 150.03125 207.453125 153.902344 C 208.765625 157.777344 211.308594 152.566406 213.050781 151.804688 C 214.796875 151.046875 214.15625 154.070312 214.804688 155.507812 C 215.558594 157.179688 216.238281 156.894531 219.046875 154.273438 C 221.851562 151.648438 222.636719 158.355469 223.445312 162.035156 C 234.726562 170.804688 220.566406 187.203125 205.972656 184.261719 Z M 205.972656 184.261719 "/><g clip-rule="nonzero" clip-path="url(#4cc203f4fc)"><path style="fill:none;stroke-width:30.181999;stroke-linecap:butt;stroke-linejoin:miter;stroke:#221d20;stroke-opacity:1;stroke-miterlimit:4;" d="M 333.888987 677.271906 C 61.870378 622.44925 -49.725147 252.631067 194.701557 165.44932 C 209.797651 158.73192 246.562779 135.546053 273.143461 96.686252 C 306.297083 48.147616 336.922651 44.31942 361.2642 115.899462 C 385.533518 187.551735 432.555322 91.196763 464.769953 77.111891 C 497.056813 63.099249 485.211075 119.005357 497.201274 145.586039 C 511.141686 176.500528 523.709725 171.227729 575.643177 122.761323 C 627.504399 74.222687 642.022652 198.241792 656.974285 266.282559 C 865.574854 428.439164 603.740691 731.661182 333.888987 677.271906 Z M 333.888987 677.271906 " transform="matrix(0.0540806,0,0,0.0540806,187.91573,147.634428)"/></g><g clip-rule="nonzero" clip-path="url(#1b195200ca)"><path style="fill:none;stroke-width:30.181999;stroke-linecap:butt;stroke-linejoin:miter;stroke:#221d20;stroke-opacity:1;stroke-miterlimit:4;" d="M 367.403759 205.031423 L 289.828617 260.070769 M 426.415762 217.888383 L 411.391899 286.579221 " transform="matrix(0.0540806,0,0,0.0540806,187.91573,147.634428)"/></g><path style="fill:none;stroke-width:30.181999;stroke-linecap:butt;stroke-linejoin:miter;stroke:#221d20;stroke-opacity:1;stroke-miterlimit:4;" d="M 483.694242 228.145059 L 530.643816 301.314164 " transform="matrix(0.0540806,0,0,0.0540806,187.91573,147.634428)"/><path style="fill:none;stroke-width:22.820999;stroke-linecap:round;stroke-linejoin:miter;stroke:#221d20;stroke-opacity:1;stroke-miterlimit:4;" d="M 213.048006 356.714661 C 228.505251 347.035826 263.464626 336.345769 279.21079 371.160684 " transform="matrix(0.0540806,0,0,0.0540806,187.91573,147.634428)"/><path style="fill:none;stroke-width:22.820999;stroke-linecap:round;stroke-linejoin:miter;stroke:#221d20;stroke-opacity:1;stroke-miterlimit:4;" d="M 474.809938 413.848681 C 490.339413 404.169846 525.226558 393.479789 540.972723 428.294704 " transform="matrix(0.0540806,0,0,0.0540806,187.91573,147.634428)"/><path style=" stroke:none;fill-rule:nonzero;fill:#231f20;fill-opacity:1;" d="M 202.660156 172.5625 C 202.222656 172.464844 201.789062 172.742188 201.75 173.1875 C 201.699219 173.753906 201.722656 174.328125 201.824219 174.890625 C 201.972656 175.71875 202.285156 176.507812 202.738281 177.21875 C 203.195312 177.925781 203.785156 178.539062 204.476562 179.019531 C 205.167969 179.5 205.945312 179.839844 206.765625 180.019531 C 207.589844 180.195312 208.441406 180.210938 209.269531 180.0625 C 210.097656 179.914062 210.886719 179.605469 211.597656 179.148438 C 212.304688 178.695312 212.917969 178.105469 213.398438 177.414062 C 213.722656 176.945312 213.984375 176.433594 214.175781 175.898438 C 214.324219 175.476562 214.042969 175.042969 213.605469 174.949219 L 208.132812 173.753906 Z M 202.660156 172.5625 "/><path style=" stroke:none;fill-rule:nonzero;fill:#fffbe4;fill-opacity:1;" d="M 153.761719 230.804688 C 139.050781 227.839844 133.015625 207.839844 146.234375 203.125 C 147.050781 202.761719 149.039062 201.503906 150.476562 199.40625 C 152.273438 196.78125 153.925781 196.574219 155.242188 200.445312 C 156.554688 204.320312 159.097656 199.109375 160.84375 198.347656 C 162.585938 197.589844 161.945312 200.613281 162.59375 202.050781 C 163.347656 203.722656 164.027344 203.4375 166.835938 200.816406 C 169.640625 198.191406 170.425781 204.898438 171.234375 208.578125 C 182.515625 217.347656 168.355469 233.746094 153.761719 230.804688 Z M 153.761719 230.804688 "/><g clip-rule="nonzero" clip-path="url(#aa4ae42b1b)"><path style="fill:none;stroke-width:30.181999;stroke-linecap:butt;stroke-linejoin:miter;stroke:#221d20;stroke-opacity:1;stroke-miterlimit:4;" d="M 333.877372 677.27421 C 61.858764 622.451554 -49.736762 252.633372 194.689943 165.451624 C 209.786036 158.734224 246.551164 135.476127 273.131846 96.688556 C 306.357699 48.14992 336.911037 44.321724 361.252585 115.901766 C 385.521903 187.554039 432.543707 91.199067 464.830568 77.114195 C 497.045199 63.101553 485.19946 119.007661 497.189659 145.588343 C 511.130071 176.502832 523.698111 171.230033 575.631562 122.763627 C 627.492784 74.224991 642.011037 198.244096 656.96267 266.284863 C 865.563239 428.441468 603.729077 731.663486 333.877372 677.27421 Z M 333.877372 677.27421 " transform="matrix(0.0540806,0,0,0.0540806,135.70542,194.177272)"/></g><path style="fill:none;stroke-width:30.181999;stroke-linecap:butt;stroke-linejoin:miter;stroke:#221d20;stroke-opacity:1;stroke-miterlimit:4;" d="M 367.392145 205.033727 L 289.889233 260.073073 M 426.404148 217.890687 L 411.380284 286.581525 " transform="matrix(0.0540806,0,0,0.0540806,135.70542,194.177272)"/><path style="fill:none;stroke-width:30.181999;stroke-linecap:butt;stroke-linejoin:miter;stroke:#221d20;stroke-opacity:1;stroke-miterlimit:4;" d="M 483.682628 228.147363 L 530.632202 301.316468 " transform="matrix(0.0540806,0,0,0.0540806,135.70542,194.177272)"/><path style="fill:none;stroke-width:22.820999;stroke-linecap:round;stroke-linejoin:miter;stroke:#221d20;stroke-opacity:1;stroke-miterlimit:4;" d="M 213.036392 356.716965 C 228.493636 347.03813 263.453011 336.348073 279.199176 371.162988 " transform="matrix(0.0540806,0,0,0.0540806,135.70542,194.177272)"/><path style="fill:none;stroke-width:22.820999;stroke-linecap:round;stroke-linejoin:miter;stroke:#221d20;stroke-opacity:1;stroke-miterlimit:4;" d="M 474.798324 413.850985 C 490.327798 404.17215 525.287173 393.482093 540.961108 428.297008 " transform="matrix(0.0540806,0,0,0.0540806,135.70542,194.177272)"/><path style=" stroke:none;fill-rule:nonzero;fill:#231f20;fill-opacity:1;" d="M 150.449219 219.105469 C 150.015625 219.007812 149.578125 219.285156 149.539062 219.730469 C 149.488281 220.296875 149.511719 220.871094 149.613281 221.433594 C 149.765625 222.261719 150.074219 223.050781 150.527344 223.761719 C 150.984375 224.46875 151.574219 225.082031 152.265625 225.5625 C 152.957031 226.042969 153.734375 226.382812 154.558594 226.5625 C 155.378906 226.738281 156.230469 226.753906 157.058594 226.605469 C 157.886719 226.457031 158.675781 226.148438 159.386719 225.691406 C 160.09375 225.238281 160.707031 224.648438 161.1875 223.957031 C 161.511719 223.488281 161.773438 222.976562 161.964844 222.441406 C 162.113281 222.019531 161.832031 221.585938 161.398438 221.492188 L 155.921875 220.296875 Z M 150.449219 219.105469 "/><path style=" stroke:none;fill-rule:nonzero;fill:#fffbe4;fill-opacity:1;" d="M 208.246094 230.804688 C 193.535156 227.839844 187.496094 207.839844 200.71875 203.125 C 201.535156 202.761719 203.523438 201.503906 204.960938 199.40625 C 206.753906 196.78125 208.410156 196.574219 209.722656 200.445312 C 211.039062 204.320312 213.582031 199.109375 215.324219 198.347656 C 217.066406 197.589844 216.425781 200.613281 217.074219 202.050781 C 217.832031 203.722656 218.511719 203.4375 221.316406 200.816406 C 224.125 198.191406 224.910156 204.898438 225.714844 208.578125 C 237 217.347656 222.839844 233.746094 208.246094 230.804688 Z M 208.246094 230.804688 "/><g clip-rule="nonzero" clip-path="url(#8b717c0fcd)"><path style="fill:none;stroke-width:30.181999;stroke-linecap:butt;stroke-linejoin:miter;stroke:#221d20;stroke-opacity:1;stroke-miterlimit:4;" d="M 333.914179 677.27421 C 61.895571 622.451554 -49.772185 252.633372 194.72675 165.451624 C 209.822844 158.734224 246.587972 135.476127 273.168654 96.688556 C 306.322276 48.14992 336.947844 44.321724 361.217162 115.901766 C 385.558711 187.554039 432.580515 91.199067 464.795145 77.114195 C 497.009776 63.101553 485.164038 119.007661 497.154236 145.588343 C 511.166878 176.502832 523.734918 171.230033 575.59614 122.763627 C 627.529592 74.224991 642.047845 198.244096 656.927248 266.284863 C 865.600046 428.441468 603.765884 731.663486 333.914179 677.27421 Z M 333.914179 677.27421 " transform="matrix(0.0540806,0,0,0.0540806,190.187805,194.177272)"/></g><path style="fill:none;stroke-width:30.181999;stroke-linecap:butt;stroke-linejoin:miter;stroke:#221d20;stroke-opacity:1;stroke-miterlimit:4;" d="M 367.428952 205.033727 L 289.85381 260.073073 M 426.368725 217.890687 L 411.417091 286.581525 " transform="matrix(0.0540806,0,0,0.0540806,190.187805,194.177272)"/><path style="fill:none;stroke-width:30.181999;stroke-linecap:butt;stroke-linejoin:miter;stroke:#221d20;stroke-opacity:1;stroke-miterlimit:4;" d="M 483.719435 228.147363 L 530.669009 301.316468 " transform="matrix(0.0540806,0,0,0.0540806,190.187805,194.177272)"/><path style="fill:none;stroke-width:22.820999;stroke-linecap:round;stroke-linejoin:miter;stroke:#221d20;stroke-opacity:1;stroke-miterlimit:4;" d="M 213.000969 356.716965 C 228.530444 347.03813 263.489819 336.348073 279.163753 371.162988 " transform="matrix(0.0540806,0,0,0.0540806,190.187805,194.177272)"/><path style="fill:none;stroke-width:22.820999;stroke-linecap:round;stroke-linejoin:miter;stroke:#221d20;stroke-opacity:1;stroke-miterlimit:4;" d="M 474.835131 413.850985 C 490.292376 404.17215 525.251751 393.482093 540.997915 428.297008 " transform="matrix(0.0540806,0,0,0.0540806,190.187805,194.177272)"/><path style=" stroke:none;fill-rule:nonzero;fill:#231f20;fill-opacity:1;" d="M 204.933594 219.105469 C 204.496094 219.007812 204.0625 219.285156 204.019531 219.730469 C 203.96875 220.296875 203.996094 220.871094 204.097656 221.433594 C 204.246094 222.261719 204.558594 223.050781 205.011719 223.761719 C 205.464844 224.46875 206.054688 225.082031 206.746094 225.5625 C 207.4375 226.042969 208.21875 226.382812 209.039062 226.5625 C 209.863281 226.738281 210.710938 226.753906 211.539062 226.605469 C 212.367188 226.457031 213.160156 226.148438 213.867188 225.691406 C 214.578125 225.238281 215.1875 224.648438 215.667969 223.957031 C 215.996094 223.488281 216.257812 222.976562 216.445312 222.441406 C 216.597656 222.019531 216.316406 221.585938 215.878906 221.492188 L 210.40625 220.296875 Z M 204.933594 219.105469 "/></g></svg>